<?xml version="1.0" encoding="utf-8"?>
<!-- Generator: Adobe Illustrator 24.1.0, SVG Export Plug-In . SVG Version: 6.00 Build 0)  -->
<svg version="1.1" id="Capa_1" xmlns="http://www.w3.org/2000/svg" xmlns:xlink="http://www.w3.org/1999/xlink" x="0px" y="0px"
	 viewBox="0 0 1366 293" style="enable-background:new 0 0 1366 293;" xml:space="preserve">
<style type="text/css">
	.st0{fill:#D31624;}
	.st1{fill:#ED1C24;}
	.st2{fill:#ED1D24;}
	.st3{fill:#ED1E24;}
	.st4{fill:#ED1F24;}
	.st5{fill:#ED2024;}
	.st6{fill:#ED2124;}
	.st7{fill:#ED2224;}
	.st8{fill:#ED2324;}
	.st9{fill:#EE2424;}
	.st10{fill:#EE2524;}
	.st11{fill:#EE2624;}
	.st12{fill:#EE2724;}
	.st13{fill:#EE2824;}
	.st14{fill:#EE2924;}
	.st15{fill:#EE2A24;}
	.st16{fill:#EE2B24;}
	.st17{fill:#EE2C24;}
	.st18{fill:#EE2D24;}
	.st19{fill:#EE2E24;}
	.st20{fill:#EE2F24;}
	.st21{fill:#EE3024;}
	.st22{fill:#EE3124;}
	.st23{fill:#EE3224;}
	.st24{fill:#EE3324;}
	.st25{fill:#EF3424;}
	.st26{fill:#EF3524;}
	.st27{fill:#EF3624;}
	.st28{fill:#EF3724;}
	.st29{fill:#EF3824;}
	.st30{fill:#EF3924;}
	.st31{fill:#EF3A24;}
	.st32{fill:#EF3B24;}
	.st33{fill:#EF3C24;}
	.st34{fill:#EF3D24;}
	.st35{fill:#EF3E24;}
	.st36{fill:#EF3F24;}
	.st37{fill:#EF4024;}
	.st38{fill:#EF4124;}
	.st39{fill:#EF4224;}
	.st40{fill:#F04324;}
	.st41{fill:#F04424;}
	.st42{fill:#F04524;}
	.st43{fill:#F04624;}
	.st44{fill:#F04724;}
	.st45{fill:#F04824;}
	.st46{fill:#F04924;}
	.st47{fill:#F04A24;}
	.st48{fill:#F04B24;}
	.st49{fill:#F04C24;}
	.st50{fill:#F04D24;}
	.st51{fill:#F04E24;}
	.st52{fill:#F04F24;}
	.st53{fill:#F05024;}
	.st54{fill:#F05124;}
	.st55{fill:#F05224;}
	.st56{fill:#F15324;}
	.st57{fill:#F15424;}
	.st58{fill:#F15524;}
	.st59{fill:#F15624;}
	.st60{fill:#F15724;}
	.st61{fill:#F15824;}
	.st62{fill:#F15924;}
	.st63{fill:#F15A24;}
</style>
<g>
	<g>
		<path d="M336.7,144.5c-2.7-125.5,201-125.1,198,0C537.6,269.9,334,270.3,336.7,144.5z M490.8,144.5c2.7-76.4-112.9-76.8-110.3,0
			C377.9,221.2,493.5,220.9,490.8,144.5z"/>
		<path d="M720.4,51.6l-79.7,185.8h-44.9L516.2,51.6h45.2l57.8,137.8l59.5-137.8H720.4z"/>
		<path d="M902.7,51.6v185.8h-41.4v-23.7c-46.1,51.1-145.5,26.4-139.9-56c0,0,0-106.1,0-106.1H765v100.2c0,33.7,16,49.8,43.5,49.8
			c71.8,4.1,46.6-105.7,50.8-149.9H902.7z"/>
		<path d="M1245.8,130.9v106.5h-43.5V136.5c0-33.1-15.3-49.1-41.7-49.1c-68.5-4.5-44.3,107.9-48.4,149.9h-43.5V136.5
			c0-33.1-15.3-49.1-41.7-49.1c-68.7-4.6-44.2,107.9-48.4,149.9h-43.5V51.6h41.4v23.7c27.2-35,100.6-35.3,123.5,5.2
			C1143.3,27.3,1251.5,41,1245.8,130.9z"/>
	</g>
	<g>
		<path class="st0" d="M266.3,236.3c-33.9,22.7-77.7,36.4-115.3,13.7c-38.7-17.3-74.1-49.5-72.5-95.2
			c-3.7-40.5,10.1-83.1,47.9-102.9c33.9-22.7,77.7-36.4,115.3-13.7c38.7,17.3,74.1,49.5,72.5,95.2
			C317.9,173.8,304.2,216.5,266.3,236.3z"/>
		<g>
			<path class="st1" d="M298.3,167.1c-7,30.2-25.1,50.3-47.9,61.7s-50,13.9-75.5,8.7c-50.9-10.4-94.3-51.5-78.6-114.4
				c7-30.2,25.1-50.3,47.9-61.7s50-13.9,75.5-8.7C270.6,63.1,314,104.3,298.3,167.1z"/>
			<path class="st2" d="M144.3,62.3c22.7-11.4,49.7-14,74.9-8.9c30.8,6.2,58.9,23.9,72.8,51c5.6,11,8.8,23.5,8.7,37.5
				c0,7.8-1,16.1-3.2,24.8c-6.9,29.9-24.7,50.1-47.2,61.3c-22.7,11.4-49.7,14-74.9,8.9c-30.8-6.2-58.9-23.9-72.8-51
				c-5.6-11-8.8-23.5-8.7-37.5c0-7.8,1.1-16.1,3.2-24.8C104.2,93.8,121.8,73.5,144.3,62.3z"/>
			<path class="st3" d="M144.4,63.1c22.7-11.4,49.5-14.2,74.4-9.2c30.5,6.1,58.4,23.6,72.4,50.4c5.7,10.8,8.8,23.3,8.8,37.2
				c0,7.7-1,16-3.1,24.6c-6.7,29.7-24.2,49.8-46.5,61c-22.7,11.5-49.5,14.2-74.4,9.2c-30.5-6.1-58.4-23.6-72.4-50.4
				c-5.7-10.8-8.8-23.3-8.8-37.2c0-7.7,1.1-16,3.1-24.6C104.8,94.5,122,74.4,144.4,63.1z"/>
			<path class="st4" d="M144.5,64c22.7-11.5,49.2-14.3,73.9-9.4c30.2,6,57.8,23.2,72,49.8c5.7,10.7,8.9,23.1,8.9,36.8
				c0,7.7-1,15.8-3,24.4c-6.6,29.4-23.7,49.6-45.9,60.7c-22.7,11.6-49.2,14.3-73.9,9.4c-30.2-6-57.8-23.2-72-49.8
				c-5.7-10.7-8.9-23.1-8.9-36.8c0-7.7,1-15.8,3-24.4C105.4,95.3,122.3,75.2,144.5,64z"/>
			<path class="st5" d="M144.5,64.9c22.7-11.5,48.9-14.5,73.4-9.7c29.8,5.9,57.2,22.9,71.5,49.3c5.7,10.6,9,22.8,8.9,36.5
				c0,7.6-1,15.7-3,24.2c-6.4,29.2-23.2,49.3-45.2,60.3c-22.7,11.6-48.9,14.5-73.4,9.7c-29.8-5.9-57.2-22.9-71.5-49.3
				c-5.7-10.6-9-22.8-8.9-36.5c0-7.6,1-15.7,3-24.2C105.9,96.1,122.5,76,144.5,64.9z"/>
			<path class="st6" d="M144.6,65.7c22.8-11.6,48.6-14.6,72.9-9.9c29.5,5.8,56.7,22.6,71.1,48.7c5.8,10.4,9,22.6,9,36.1
				c0,7.5-0.9,15.6-2.9,24.1c-6.3,29-22.7,49.1-44.5,60c-22.7,11.7-48.6,14.6-72.9,9.9c-29.5-5.8-56.7-22.6-71.1-48.7
				c-5.8-10.4-9-22.6-9-36.1c0-7.5,1-15.6,2.9-24.1C106.5,96.8,122.8,76.8,144.6,65.7z"/>
			<path class="st7" d="M144.7,66.6C167.4,55,193,51.9,217.1,56.5c29.2,5.7,56.1,22.3,70.7,48.1c5.8,10.3,9.1,22.4,9.1,35.8
				c0,7.5-0.9,15.5-2.8,23.9c-6.1,28.7-22.2,48.8-43.9,59.6c-22.7,11.8-48.3,14.8-72.4,10.1c-29.2-5.7-56.1-22.3-70.7-48.1
				c-5.8-10.3-9.1-22.4-9.1-35.8c0-7.5,1-15.4,2.8-23.9C107.1,97.6,123.1,77.6,144.7,66.6z"/>
			<path class="st8" d="M144.7,67.5c22.8-11.6,48.1-14.9,71.9-10.4c28.9,5.5,55.6,21.9,70.3,47.5c5.8,10.1,9.1,22.1,9.1,35.4
				c0,7.4-0.9,15.3-2.7,23.7c-6,28.5-21.7,48.5-43.2,59.3c-22.7,11.8-48.1,14.9-71.9,10.4c-28.9-5.5-55.6-21.9-70.3-47.5
				c-5.8-10.1-9.1-22.1-9.1-35.4c0-7.4,0.9-15.3,2.7-23.7C107.7,98.3,123.3,78.4,144.7,67.5z"/>
			<path class="st9" d="M144.8,68.3c22.8-11.7,47.8-15.1,71.4-10.6c28.5,5.4,55,21.6,69.9,47c5.9,10,9.2,21.9,9.2,35.1
				c0,7.3-0.9,15.2-2.6,23.5c-5.8,28.2-21.2,48.3-42.5,59c-22.7,11.9-47.8,15.1-71.4,10.6c-28.5-5.4-55-21.6-69.9-47
				c-5.9-10-9.2-21.9-9.2-35.1c0-7.3,0.9-15.2,2.6-23.5C108.2,99.1,123.6,79.2,144.8,68.3z"/>
			<path class="st10" d="M144.9,69.2c22.8-11.7,47.5-15.2,70.8-10.9c28.2,5.3,54.4,21.3,69.5,46.4c5.9,9.9,9.3,21.6,9.2,34.7
				c0,7.3-0.8,15.1-2.6,23.3c-5.7,28-20.7,48-41.9,58.6c-22.7,12-47.5,15.2-70.8,10.9c-28.2-5.3-54.4-21.3-69.5-46.4
				c-5.9-9.9-9.3-21.6-9.2-34.7c0-7.3,0.9-15.1,2.6-23.3C108.8,99.9,123.8,80.1,144.9,69.2z"/>
			<path class="st11" d="M145,70.1c22.8-11.8,47.2-15.3,70.3-11.1c27.9,5.2,53.9,20.9,69.1,45.8c5.9,9.7,9.3,21.4,9.3,34.4
				c0,7.2-0.8,14.9-2.5,23.2c-5.5,27.7-20.2,47.8-41.2,58.3c-22.7,12-47.2,15.3-70.3,11.1c-27.9-5.2-53.9-20.9-69-45.8
				c-5.9-9.7-9.3-21.4-9.3-34.4c0-7.2,0.8-14.9,2.5-23.2C109.4,100.6,124.1,80.9,145,70.1z"/>
			<path class="st12" d="M145,71c22.8-11.8,47-15.5,69.8-11.4c27.6,5.1,53.3,20.6,68.6,45.2c6,9.6,9.4,21.2,9.4,34
				c0,7.1-0.8,14.8-2.4,23c-5.4,27.5-19.7,47.5-40.5,57.9c-22.7,12.1-47,15.5-69.8,11.4c-27.6-5.1-53.3-20.6-68.6-45.2
				c-6-9.6-9.4-21.2-9.4-34c0-7.1,0.8-14.8,2.4-23C110,101.4,124.3,81.7,145,71z"/>
			<path class="st13" d="M145.1,71.8c22.8-11.8,46.7-15.7,69.3-11.6c27.3,4.9,52.7,20.3,68.2,44.7c6,9.4,9.4,20.9,9.4,33.7
				c0,7-0.7,14.7-2.3,22.8c-5.2,27.3-19.2,47.2-39.9,57.6c-22.7,12.2-46.7,15.7-69.3,11.6c-27.3-4.9-52.7-20.3-68.2-44.7
				c-6-9.4-9.4-20.9-9.4-33.7c0-7,0.8-14.7,2.3-22.8C110.5,102.2,124.6,82.5,145.1,71.8z"/>
			<path class="st14" d="M145.2,72.7C168,60.8,191.6,56.8,214,60.8c26.9,4.8,52.2,19.9,67.8,44.1c6,9.3,9.5,20.7,9.5,33.3
				c0,7-0.7,14.6-2.3,22.6c-5.1,27-18.7,47-39.2,57.3c-22.7,12.3-46.4,15.9-68.8,11.9c-26.9-4.8-52.2-19.9-67.8-44.1
				c-6-9.3-9.5-20.7-9.5-33.3c0-7,0.7-14.6,2.3-22.6C111.1,102.9,124.8,83.3,145.2,72.7z"/>
			<path class="st15" d="M145.2,73.6c22.9-11.9,46.1-16,68.3-12.1c26.6,4.7,51.6,19.6,67.4,43.5c6.1,9.2,9.5,20.5,9.6,32.9
				c0,6.9-0.7,14.4-2.2,22.4c-4.9,26.8-18.2,46.7-38.5,56.9c-22.6,12.3-46.1,16-68.3,12.1c-26.6-4.7-51.6-19.6-67.4-43.5
				c-6.1-9.2-9.5-20.5-9.6-32.9c0-6.9,0.7-14.4,2.2-22.4C111.7,103.7,125.1,84.1,145.2,73.6z"/>
			<path class="st16" d="M145.3,74.4c22.9-12,45.8-16.2,67.8-12.4c26.3,4.5,51,19.3,67,42.9c6.1,9,9.6,20.2,9.6,32.6
				c0,6.8-0.7,14.3-2.1,22.2c-4.8,26.5-17.7,46.5-37.9,56.6c-22.6,12.4-45.8,16.2-67.8,12.4c-26.3-4.5-51-19.3-67-42.9
				c-6.1-9-9.6-20.2-9.6-32.6c0-6.8,0.7-14.3,2.1-22.2C112.2,104.5,125.3,84.9,145.3,74.4z"/>
			<path class="st17" d="M145.4,75.3c22.9-12,45.6-16.3,67.3-12.6c26,4.4,50.4,19,66.6,42.4c6.1,8.9,9.7,20,9.7,32.2
				c0,6.8-0.6,14.2-2,22.1c-4.6,26.3-17.2,46.2-37.2,56.2c-22.6,12.5-45.6,16.3-67.3,12.6c-26-4.4-50.4-19-66.6-42.4
				c-6.1-8.9-9.7-20-9.7-32.2c0-6.8,0.6-14.2,2-22.1C112.8,105.2,125.6,85.7,145.4,75.3z"/>
			<path class="st18" d="M145.5,76.2c22.9-12.1,45.3-16.5,66.7-12.9c25.6,4.3,49.9,18.6,66.1,41.8c6.1,8.7,9.7,19.7,9.7,31.9
				c0,6.7-0.6,14.1-2,21.9c-4.5,26.1-16.7,46-36.6,55.9c-22.6,12.5-45.3,16.5-66.7,12.9c-25.6-4.3-49.9-18.6-66.1-41.8
				c-6.1-8.7-9.7-19.7-9.7-31.9c0-6.7,0.6-14.1,2-21.9C113.4,106,125.8,86.5,145.5,76.2z"/>
			<path class="st19" d="M145.5,77c22.9-12.1,45-16.6,66.2-13.1c25.3,4.2,49.3,18.3,65.7,41.2c6.2,8.6,9.8,19.5,9.8,31.5
				c0,6.6-0.6,13.9-1.9,21.7c-4.3,25.8-16.2,45.7-35.9,55.6c-22.6,12.6-45,16.6-66.2,13.1c-25.3-4.2-49.3-18.3-65.7-41.2
				c-6.2-8.6-9.8-19.5-9.8-31.5c0-6.6,0.6-13.9,1.9-21.7C114,106.8,126.1,87.3,145.5,77z"/>
			<path class="st20" d="M145.6,77.9c22.9-12.1,44.7-16.8,65.7-13.3c25,4.1,48.7,18,65.3,40.7c6.2,8.5,9.8,19.3,9.9,31.2
				c0,6.6-0.6,13.8-1.8,21.5c-4.1,25.6-15.7,45.4-35.2,55.2c-22.6,12.7-44.7,16.8-65.7,13.3c-25-4.1-48.7-18-65.3-40.7
				c-6.2-8.5-9.8-19.3-9.9-31.2c0-6.6,0.6-13.8,1.8-21.5C114.5,107.5,126.3,88.1,145.6,77.9z"/>
			<path class="st21" d="M145.7,78.8c22.9-12.2,44.5-16.9,65.2-13.6c24.7,4,48.1,17.6,64.9,40.1c6.2,8.3,9.9,19,9.9,30.8
				c0,6.5-0.5,13.7-1.7,21.3c-4,25.3-15.2,45.2-34.6,54.9c-22.6,12.7-44.5,16.9-65.2,13.6c-24.7-4-48.1-17.6-64.9-40.1
				c-6.2-8.3-9.9-19-9.9-30.8c0-6.5,0.5-13.7,1.7-21.3C115.1,108.3,126.6,88.9,145.7,78.8z"/>
			<path class="st22" d="M145.8,79.6c22.9-12.2,44.2-17.1,64.7-13.8c24.3,3.8,47.5,17.3,64.5,39.5c6.3,8.2,9.9,18.8,10,30.5
				c0,6.4-0.5,13.6-1.7,21.2c-3.8,25.1-14.7,44.9-33.9,54.5c-22.6,12.8-44.2,17.1-64.7,13.8c-24.3-3.8-47.5-17.3-64.5-39.5
				c-6.3-8.2-9.9-18.8-10-30.5c0-6.4,0.5-13.6,1.7-21.2C115.7,109.1,126.8,89.7,145.8,79.6z"/>
			<path class="st23" d="M145.8,80.5c23-12.3,43.9-17.2,64.2-14.1c24,3.7,47,17,64.1,38.9c6.3,8.1,10,18.5,10.1,30.1
				c0,6.3-0.5,13.4-1.6,21c-3.7,24.8-14.2,44.7-33.2,54.2c-22.6,12.9-43.9,17.2-64.2,14.1c-24-3.7-47-17-64.1-38.9
				c-6.3-8.1-10-18.5-10.1-30.1c0-6.3,0.5-13.4,1.6-21C116.3,109.8,127.1,90.5,145.8,80.5z"/>
			<path class="st24" d="M145.9,81.4C168.9,69,189.5,64,209.6,67c23.7,3.6,46.4,16.7,63.7,38.4c6.3,7.9,10.1,18.3,10.1,29.8
				c0,6.3-0.4,13.3-1.5,20.8c-3.5,24.6-13.7,44.4-32.6,53.9c-22.6,13-43.6,17.4-63.7,14.3c-23.7-3.6-46.4-16.7-63.7-38.4
				c-6.3-7.9-10.1-18.3-10.1-29.8c0-6.3,0.4-13.3,1.5-20.8C116.9,110.6,127.3,91.3,145.9,81.4z"/>
			<path class="st25" d="M146,82.2c23-12.4,43.3-17.5,63.2-14.6c23.4,3.5,45.8,16.3,63.2,37.8c6.3,7.8,10.1,18.1,10.2,29.4
				c0,6.2-0.4,13.2-1.4,20.6c-3.4,24.4-13.2,44.2-31.9,53.5c-22.6,13-43.3,17.5-63.2,14.6c-23.4-3.5-45.8-16.3-63.2-37.8
				c-6.3-7.8-10.1-18.1-10.2-29.4c0-6.2,0.4-13.2,1.4-20.6C117.5,111.4,127.6,92.1,146,82.2z"/>
			<path class="st26" d="M146,83.1c23-12.4,43.1-17.7,62.6-14.8c23,3.4,45.2,16,62.8,37.2c6.4,7.6,10.2,17.8,10.3,29.1
				c0,6.1-0.4,13-1.4,20.4c-3.2,24.1-12.7,43.9-31.2,53.2c-22.6,13.1-43.1,17.7-62.6,14.8c-23-3.4-45.2-16-62.8-37.2
				c-6.4-7.6-10.2-17.8-10.3-29.1c0-6.1,0.4-13.1,1.4-20.4C118,112.1,127.8,92.9,146,83.1z"/>
			<path class="st27" d="M146.1,84c23-12.4,42.8-17.8,62.1-15.1c22.7,3.2,44.6,15.7,62.4,36.6c6.4,7.5,10.2,17.6,10.3,28.7
				c0,6.1-0.4,12.9-1.3,20.2c-3.1,23.9-12.2,43.6-30.6,52.8c-22.6,13.2-42.8,17.8-62.1,15.1c-22.7-3.2-44.6-15.7-62.4-36.6
				c-6.4-7.5-10.2-17.6-10.3-28.7c0-6.1,0.3-12.9,1.3-20.3C118.6,112.9,128.1,93.7,146.1,84z"/>
			<path class="st28" d="M146.2,84.8c23-12.5,42.5-18,61.6-15.3c22.4,3.1,44,15.4,62,36.1c6.4,7.4,10.3,17.4,10.4,28.4
				c0.1,6-0.3,12.8-1.2,20.1c-2.9,23.6-11.7,43.4-29.9,52.5c-22.6,13.2-42.5,18-61.6,15.3c-22.4-3.1-44-15.4-62-36.1
				c-6.4-7.4-10.3-17.4-10.4-28.4c-0.1-6,0.3-12.8,1.2-20.1C119.2,113.7,128.3,94.5,146.2,84.8z"/>
			<path class="st29" d="M146.3,85.7c23-12.5,42.2-18.1,61.1-15.6c22.1,3,43.4,15,61.6,35.5c6.4,7.2,10.3,17.1,10.4,28
				c0.1,5.9-0.3,12.7-1.1,19.9c-2.8,23.4-11.2,43.1-29.2,52.2c-22.6,13.3-42.2,18.1-61.1,15.6c-22.1-3-43.4-15-61.6-35.5
				c-6.4-7.2-10.3-17.1-10.4-28c-0.1-5.9,0.3-12.7,1.1-19.9C119.7,114.4,128.6,95.3,146.3,85.7z"/>
			<path class="st30" d="M146.3,86.6c23-12.6,42-18.3,60.6-15.8c21.7,2.9,42.8,14.7,61.2,34.9c6.4,7.1,10.4,16.9,10.5,27.7
				c0.1,5.9-0.3,12.5-1,19.7c-2.6,23.2-10.7,42.9-28.6,51.8c-22.6,13.4-42,18.3-60.6,15.8c-21.7-2.9-42.8-14.7-61.2-34.9
				c-6.4-7.1-10.4-16.9-10.5-27.7c-0.1-5.9,0.3-12.5,1-19.7C120.3,115.2,128.8,96.1,146.3,86.6z"/>
			<path class="st31" d="M146.4,87.4c23.1-12.6,41.7-18.4,60.1-16.1c21.4,2.8,42.2,14.4,60.7,34.4c6.5,7,10.5,16.6,10.6,27.3
				c0.1,5.8-0.3,12.4-1,19.5c-2.5,22.9-10.2,42.6-27.9,51.5c-22.6,13.4-41.7,18.4-60.1,16.1c-21.4-2.8-42.2-14.4-60.7-34.3
				c-6.5-7-10.5-16.6-10.6-27.3c-0.1-5.8,0.2-12.4,1-19.5C120.9,116,129,96.9,146.4,87.4z"/>
			<path class="st32" d="M146.5,88.3C169.5,75.6,187.9,69.7,206,72c21.1,2.7,41.6,14.1,60.3,33.8c6.5,6.8,10.5,16.4,10.6,27
				c0.1,5.7-0.2,12.3-0.9,19.3c-2.3,22.7-9.7,42.4-27.2,51.1c-22.6,13.5-41.4,18.6-59.6,16.3c-21.1-2.7-41.6-14.1-60.3-33.8
				c-6.5-6.8-10.5-16.4-10.6-27c-0.1-5.7,0.2-12.3,0.9-19.3C121.5,116.8,129.3,97.7,146.5,88.3z"/>
			<path class="st32" d="M146.5,89.2c23.1-12.7,41.1-18.7,59.1-16.6c20.8,2.5,41,13.8,59.9,33.2c6.5,6.7,10.6,16.2,10.7,26.6
				c0.1,5.6-0.2,12.2-0.8,19.2c-2.2,22.4-9.2,42.1-26.6,50.8c-22.6,13.6-41.1,18.7-59.1,16.6c-20.8-2.5-41-13.8-59.9-33.2
				c-6.5-6.7-10.6-16.2-10.7-26.6c-0.1-5.6,0.2-12.2,0.8-19.2C122,117.5,129.5,98.5,146.5,89.2z"/>
			<path class="st33" d="M146.6,90c23.1-12.8,40.8-18.9,58.5-16.8c20.4,2.4,40.4,13.4,59.5,32.6c6.5,6.6,10.6,15.9,10.8,26.3
				c0.1,5.6-0.2,12-0.7,19c-2,22.2-8.7,41.8-25.9,50.5c-22.6,13.7-40.8,18.9-58.5,16.8c-20.4-2.4-40.4-13.4-59.5-32.6
				c-6.5-6.6-10.6-15.9-10.8-26.3c-0.1-5.6,0.1-12,0.7-19C122.6,118.3,129.8,99.3,146.6,90z"/>
			<path class="st34" d="M146.7,90.9c23.1-12.8,40.6-19,58-17c20.1,2.3,39.8,13.1,59.1,32.1c6.5,6.4,10.7,15.7,10.8,25.9
				c0.1,5.5-0.1,11.9-0.7,18.8c-1.9,21.9-8.2,41.6-25.2,50.1c-22.6,13.7-40.6,19-58,17c-20.1-2.3-39.8-13.1-59.1-32.1
				c-6.5-6.4-10.7-15.7-10.8-25.9c-0.1-5.5,0.1-11.9,0.7-18.8C123.2,119.1,130,100.1,146.7,90.9z"/>
			<path class="st35" d="M146.8,91.8c23.1-12.8,40.3-19.2,57.5-17.3c19.8,2.2,39.2,12.8,58.7,31.5c6.6,6.3,10.7,15.4,10.9,25.5
				c0.1,5.4-0.1,11.8-0.6,18.6c-1.7,21.7-7.7,41.3-24.6,49.8c-22.6,13.8-40.3,19.2-57.5,17.3c-19.8-2.2-39.2-12.8-58.7-31.5
				c-6.6-6.3-10.7-15.4-10.9-25.5c-0.1-5.4,0.1-11.8,0.6-18.6C123.8,119.8,130.3,100.9,146.8,91.8z"/>
			<path class="st36" d="M146.8,92.6c23.1-12.9,40-19.4,57-17.5c19.5,2.1,38.6,12.5,58.3,30.9c6.6,6.2,10.8,15.2,10.9,25.2
				c0.1,5.4-0.1,11.7-0.5,18.4c-1.6,21.5-7.2,41.1-23.9,49.4c-22.6,13.9-40,19.3-57,17.5c-19.5-2.1-38.6-12.5-58.3-30.9
				c-6.6-6.2-10.8-15.2-10.9-25.2c-0.1-5.4,0.1-11.7,0.5-18.4C124.4,120.6,130.5,101.7,146.8,92.6z"/>
			<path class="st37" d="M146.9,93.5c23.1-12.9,39.7-19.5,56.5-17.8c19.1,2,38,12.2,57.8,30.3c6.6,6,10.9,15,11,24.8
				c0.1,5.3-0.1,11.5-0.4,18.3c-1.4,21.2-6.7,40.8-23.3,49.1c-22.6,13.9-39.7,19.5-56.5,17.8c-19.1-2-38-12.2-57.8-30.3
				c-6.6-6-10.9-15-11-24.8c-0.1-5.3,0-11.5,0.4-18.3C124.9,121.4,130.8,102.5,146.9,93.5z"/>
			<path class="st38" d="M147,94.4c23.2-13,39.5-19.7,56-18c18.8,1.8,37.4,11.9,57.4,29.8c6.6,5.9,10.9,14.7,11.1,24.5
				c0.1,5.2,0,11.4-0.4,18.1c-1.3,21-6.2,40.6-22.6,48.8c-22.5,14-39.4,19.6-56,18c-18.8-1.8-37.4-11.9-57.4-29.8
				c-6.6-5.9-10.9-14.7-11.1-24.5c-0.1-5.2,0-11.4,0.4-18.1C125.5,122.1,131,103.3,147,94.4z"/>
			<path class="st39" d="M147.1,95.2c23.2-13,39.2-19.8,55.5-18.3c18.5,1.7,36.8,11.6,57,29.2c6.6,5.8,11,14.5,11.1,24.1
				c0.1,5.2,0,11.3-0.3,17.9c-1.1,20.7-5.7,40.3-21.9,48.4c-22.5,14.1-39.2,19.8-55.5,18.3c-18.5-1.7-36.8-11.6-57-29.2
				c-6.6-5.8-11-14.5-11.1-24.1c-0.1-5.2,0-11.3,0.3-17.9C126.1,122.9,131.3,104.1,147.1,95.2z"/>
			<path class="st40" d="M147.1,96.1c23.2-13.1,38.9-20,55-18.5c18.2,1.6,36.2,11.3,56.6,28.6c6.6,5.6,11,14.2,11.2,23.8
				c0.1,5.1,0,11.1-0.2,17.7c-0.9,20.5-5.2,40-21.3,48.1c-22.5,14.1-38.9,19.9-55,18.5c-18.2-1.6-36.2-11.3-56.6-28.6
				c-6.6-5.6-11-14.2-11.2-23.8c-0.1-5.1-0.1-11.2,0.2-17.7C126.7,123.7,131.5,104.9,147.1,96.1z"/>
			<path class="st41" d="M147.2,97c23.2-13.1,38.6-20.1,54.4-18.8c17.8,1.5,35.6,11,56.2,28c6.7,5.5,11.1,14,11.3,23.4
				c0.1,5,0,11-0.1,17.5c-0.8,20.3-4.7,39.8-20.6,47.7c-22.5,14.2-38.6,20.1-54.4,18.8c-17.8-1.5-35.6-11-56.2-28
				c-6.7-5.5-11.1-14-11.3-23.4c-0.1-5-0.1-11,0.1-17.5C127.3,124.4,131.8,105.7,147.2,97z"/>
			<path class="st42" d="M147.3,97.8c23.2-13.1,38.3-20.2,53.9-19c17.5,1.4,35,10.7,55.8,27.5c6.7,5.4,11.1,13.8,11.3,23.1
				c0.1,4.9,0.1,10.9-0.1,17.3c-0.6,20-4.2,39.5-19.9,47.4c-22.5,14.3-38.3,20.2-53.9,19c-17.5-1.4-35-10.7-55.8-27.5
				c-6.7-5.4-11.1-13.8-11.3-23.1c-0.1-4.9-0.1-10.9,0.1-17.3C127.9,125.2,132,106.5,147.3,97.8z"/>
			<path class="st43" d="M147.3,98.7c23.2-13.2,38.1-20.4,53.4-19.3c17.2,1.3,34.3,10.4,55.4,26.9c6.7,5.3,11.2,13.5,11.4,22.7
				c0.1,4.9,0.1,10.8,0,17.2c-0.5,19.8-3.7,39.3-19.3,47.1c-22.5,14.4-38.1,20.4-53.4,19.3c-17.2-1.3-34.3-10.4-55.4-26.9
				c-6.7-5.3-11.2-13.5-11.4-22.7c-0.1-4.9-0.1-10.8,0-17.2C128.4,126,132.2,107.3,147.3,98.7z"/>
			<path class="st44" d="M147.4,99.6C170.7,86.3,185.2,79,200.3,80c16.9,1.2,33.7,10.1,54.9,26.3c6.7,5.1,11.3,13.3,11.4,22.4
				c0.1,4.8,0.1,10.6,0.1,17c-0.3,19.5-3.2,39-18.6,46.7c-22.5,14.4-37.8,20.5-52.9,19.5c-16.9-1.2-33.7-10.1-54.9-26.3
				c-6.7-5.1-11.3-13.3-11.4-22.4c-0.1-4.8-0.2-10.6-0.1-17C129,126.7,132.5,108.1,147.4,99.6z"/>
			<path class="st45" d="M147.5,100.4c23.3-13.3,37.5-20.7,52.4-19.8c16.5,1,33.1,9.8,54.5,25.8c6.7,5,11.3,13.1,11.5,22
				c0.1,4.7,0.2,10.5,0.2,16.8c-0.2,19.3-2.8,38.7-17.9,46.4c-22.5,14.5-37.5,20.7-52.4,19.8c-16.5-1-33.1-9.8-54.5-25.7
				c-6.7-5-11.3-13.1-11.5-22c-0.1-4.7-0.2-10.5-0.2-16.8C129.6,127.5,132.7,108.9,147.5,100.4z"/>
			<path class="st46" d="M147.6,101.3c23.3-13.3,37.2-20.8,51.9-20c16.2,0.9,32.5,9.5,54.1,25.2c6.7,4.9,11.4,12.8,11.6,21.7
				c0.1,4.7,0.2,10.4,0.3,16.6c0,19-2.3,38.5-17.3,46c-22.5,14.6-37.2,20.8-51.9,20c-16.2-0.9-32.5-9.5-54.1-25.2
				c-6.7-4.9-11.4-12.8-11.6-21.7c-0.1-4.7-0.2-10.4-0.3-16.6C130.2,128.3,133,109.6,147.6,101.3z"/>
			<path class="st47" d="M147.6,102.2c23.3-13.4,36.9-21,51.4-20.3c15.9,0.8,31.9,9.2,53.7,24.6c6.8,4.8,11.4,12.6,11.6,21.3
				c0.1,4.6,0.2,10.3,0.3,16.4c0.1,18.8-1.8,38.2-16.6,45.7c-22.5,14.6-36.9,21-51.4,20.2c-15.9-0.8-31.9-9.2-53.7-24.6
				c-6.8-4.8-11.4-12.6-11.6-21.3c-0.1-4.6-0.3-10.3-0.3-16.4C130.8,129.1,133.2,110.4,147.6,102.2z"/>
			<path class="st48" d="M147.7,103c23.3-13.4,36.7-21.1,50.9-20.5c15.6,0.7,31.3,8.9,53.3,24c6.8,4.6,11.5,12.3,11.7,21
				c0.1,4.5,0.2,10.1,0.4,16.3c0.3,18.6-1.3,38-15.9,45.4c-22.5,14.7-36.7,21.1-50.9,20.5c-15.6-0.7-31.3-8.9-53.3-24
				c-6.8-4.6-11.5-12.3-11.7-21c-0.1-4.5-0.3-10.1-0.4-16.3C131.4,129.8,133.5,111.2,147.7,103z"/>
			<path class="st49" d="M147.8,103.9c23.3-13.5,36.4-21.3,50.3-20.7c15.2,0.6,30.6,8.6,52.9,23.5c6.8,4.5,11.5,12.1,11.8,20.6
				c0.1,4.5,0.3,10,0.5,16.1c0.4,18.3-0.8,37.7-15.3,45c-22.5,14.8-36.4,21.3-50.3,20.7c-15.2-0.6-30.6-8.6-52.9-23.5
				c-6.8-4.5-11.5-12.1-11.8-20.6c-0.1-4.5-0.3-10-0.5-16.1C132,130.6,133.7,112,147.8,103.9z"/>
			<path class="st50" d="M147.8,104.8c23.3-13.5,36.1-21.4,49.8-21c14.9,0.5,30,8.4,52.4,22.9c6.8,4.4,11.6,11.9,11.8,20.3
				c0.1,4.4,0.3,9.9,0.6,15.9c0.6,18.1-0.3,37.5-14.6,44.7c-22.5,14.8-36.1,21.4-49.8,21c-14.9-0.5-30-8.4-52.4-22.9
				c-6.8-4.4-11.6-11.9-11.8-20.3c-0.1-4.4-0.3-9.9-0.6-15.9C132.5,131.4,133.9,112.8,147.8,104.8z"/>
			<path class="st51" d="M147.9,105.6c23.3-13.6,35.8-21.6,49.3-21.2c14.6,0.4,29.4,8.1,52,22.3c6.8,4.3,11.7,11.6,11.9,19.9
				c0.1,4.3,0.3,9.8,0.6,15.7c0.7,17.8,0.2,37.2-13.9,44.3c-22.5,14.9-35.8,21.6-49.3,21.2c-14.6-0.4-29.4-8.1-52-22.3
				c-6.8-4.3-11.7-11.6-11.9-19.9c-0.1-4.3-0.4-9.8-0.6-15.7C133.1,132.1,134.2,113.6,147.9,105.6z"/>
			<path class="st52" d="M148,106.5c23.4-13.6,35.5-21.7,48.8-21.5c14.3,0.3,28.8,7.8,51.6,21.7c6.8,4.2,11.7,11.4,11.9,19.6
				c0.1,4.2,0.3,9.6,0.7,15.5c0.9,17.6,0.7,36.9-13.3,44c-22.5,15-35.5,21.7-48.8,21.5c-14.3-0.3-28.8-7.8-51.6-21.7
				c-6.8-4.2-11.7-11.4-11.9-19.6c-0.1-4.2-0.4-9.6-0.7-15.5C133.7,132.9,134.4,114.4,148,106.5z"/>
			<path class="st53" d="M148.1,107.4c23.4-13.6,35.3-21.9,48.3-21.7c13.9,0.1,28.1,7.6,51.2,21.2c6.8,4,11.8,11.1,12,19.2
				c0.1,4.2,0.4,9.5,0.8,15.3c1,17.4,1.2,36.7-12.6,43.7c-22.5,15.1-35.3,21.9-48.3,21.7c-13.9-0.1-28.1-7.6-51.2-21.2
				c-6.8-4-11.8-11.1-12-19.2c-0.1-4.2-0.4-9.5-0.8-15.4C134.3,133.7,134.7,115.2,148.1,107.4z"/>
			<path class="st54" d="M148.1,108.2c23.4-13.7,35-22.2,47.8-22c13.6,0.2,27.5,7.3,50.8,20.6c6.8,3.9,11.8,10.9,12.1,18.9
				c0.1,4.1,0.4,9.4,0.9,15.2c1.2,17.1,1.7,36.4-11.9,43.3c-22.5,15.1-35,22-47.8,22c-13.6,0-27.5-7.3-50.8-20.6
				c-6.8-3.9-11.8-10.9-12.1-18.9c-0.1-4.1-0.4-9.4-0.9-15.2C134.9,134.4,134.9,116,148.1,108.2z"/>
			<path class="st55" d="M148.2,109.1c23.4-13.7,34.7-22.3,47.3-22.2c13.3,0.1,26.9,7,50.4,20c6.9,3.8,11.9,10.7,12.1,18.5
				c0.1,4,0.4,9.2,0.9,15c1.3,16.9,2.2,36.2-11.3,43c-22.5,15.2-34.7,22.2-47.3,22.2c-13.3,0.1-26.9-7-50.4-20
				c-6.9-3.8-11.9-10.7-12.1-18.5c-0.1-4-0.5-9.2-0.9-15C135.5,135.2,135.2,116.7,148.2,109.1z"/>
			<path class="st56" d="M148.3,110c23.4-13.8,34.4-22.3,46.8-22.5c13-0.2,26.3,6.8,50,19.4c6.9,3.7,11.9,10.4,12.2,18.1
				c0.1,4,0.5,9.1,1,14.8c1.5,16.6,2.7,35.9-10.6,42.6c-22.5,15.3-34.4,22.3-46.8,22.5c-13,0.2-26.3-6.8-50-19.4
				c-6.9-3.7-11.9-10.4-12.2-18.1c-0.1-4-0.5-9.1-1-14.8C136.1,136,135.4,117.5,148.3,110z"/>
			<path class="st57" d="M148.3,110.8c23.4-13.8,34.2-22.4,46.2-22.7c12.6-0.3,25.6,6.5,49.5,18.9c6.9,3.6,12,10.2,12.3,17.8
				c0.1,3.9,0.5,9,1.1,14.6c1.6,16.4,3.2,35.7-9.9,42.3c-22.5,15.3-34.2,22.4-46.2,22.7c-12.6,0.3-25.6-6.5-49.5-18.9
				c-6.9-3.6-12-10.2-12.3-17.8c-0.1-3.9-0.5-9-1.1-14.6C136.7,136.7,135.6,118.3,148.3,110.8z"/>
			<path class="st58" d="M148.4,111.7c23.4-13.9,33.9-22.6,45.7-23c12.3-0.4,25,6.3,49.1,18.3c6.9,3.4,12.1,9.9,12.3,17.4
				c0.1,3.8,0.5,8.9,1.2,14.4c1.8,16.2,3.7,35.4-9.3,42c-22.5,15.4-33.9,22.6-45.7,23c-12.3,0.4-25-6.3-49.1-18.3
				c-6.9-3.4-12.1-9.9-12.3-17.4c-0.1-3.8-0.5-8.9-1.2-14.4C137.3,137.5,135.9,119.1,148.4,111.7z"/>
			<path class="st59" d="M148.5,112.6c23.5-13.9,33.6-22.7,45.2-23.2c12-0.5,24.4,6,48.7,17.7c6.9,3.3,12.1,9.7,12.4,17.1
				c0.1,3.7,0.5,8.7,1.2,14.3c1.9,15.9,4.2,35.1-8.6,41.6c-22.5,15.5-33.6,22.7-45.2,23.2c-12,0.5-24.4-6-48.7-17.7
				c-6.9-3.3-12.1-9.7-12.4-17.1c-0.1-3.7-0.6-8.7-1.2-14.3C137.9,138.3,136.1,119.9,148.5,112.6z"/>
			<path class="st60" d="M148.6,113.4c23.5-14,33.3-22.9,44.7-23.5c11.7-0.6,23.8,5.8,48.3,17.2c6.9,3.2,12.2,9.5,12.5,16.7
				c0.1,3.7,0.6,8.6,1.3,14.1c2.1,15.7,4.7,34.9-8,41.3c-22.5,15.5-33.3,22.9-44.7,23.5c-11.7,0.6-23.8-5.8-48.3-17.2
				c-6.9-3.2-12.2-9.5-12.5-16.7c-0.1-3.7-0.6-8.6-1.3-14.1C138.5,139,136.4,120.7,148.6,113.4z"/>
			<path class="st61" d="M148.6,114.3c23.5-14,33-23,44.2-23.7c11.3-0.7,23.1,5.5,47.9,16.6c6.9,3.1,12.2,9.2,12.5,16.4
				c0.1,3.6,0.6,8.5,1.4,13.9c2.3,15.4,5.2,34.6-7.3,40.9c-22.5,15.6-33,23-44.2,23.7c-11.3,0.7-23.1-5.5-47.9-16.6
				c-6.9-3.1-12.2-9.2-12.5-16.4c-0.1-3.6-0.6-8.5-1.4-13.9C139.1,139.8,136.6,121.5,148.6,114.3z"/>
			<path class="st62" d="M148.7,115.2c23.5-14.1,32.8-23.1,43.7-24c11-0.8,22.5,5.3,47.5,16c7,3,12.3,9,12.6,16
				c0.1,3.5,0.6,8.4,1.5,13.7c2.4,15.2,5.7,34.4-6.6,40.6c-22.4,15.7-32.8,23.1-43.7,23.9c-11,0.8-22.5-5.3-47.5-16
				c-7-3-12.3-9-12.6-16c-0.1-3.5-0.6-8.4-1.5-13.7C139.7,140.6,136.8,122.3,148.7,115.2z"/>
			<path class="st63" d="M247.2,176.7c-22.4,15.8-32.5,23.3-43.2,24.2c-10.7,0.9-22-4.8-47.1-15.4c-7-2.8-11.8-8.8-12.6-15.7
				c0.5-13.2-12.1-45.5,4.4-53.8c22.4-15.8,32.5-23.3,43.2-24.2c10.7-0.9,22,4.8,47.1,15.4c7,2.8,11.8,8.8,12.6,15.7
				C251.2,136.2,263.7,168.4,247.2,176.7z"/>
		</g>
	</g>
</g>
</svg>
